/* XPM */
static char *_613228737307[] = {
/* columns rows colors chars-per-pixel */
"32 32 120 2 ",
"   c black",
".  c #000B00",
"X  c #1B121B",
"o  c #1D1B1D",
"O  c gray12",
"+  c #3D373D",
"@  c #007500",
"#  c #5A4D5A",
"$  c #565656",
"%  c #585858",
"&  c #6E506E",
"*  c #12DE12",
"=  c #06F106",
"-  c green",
";  c #07FF02",
":  c #04FF07",
">  c #0DFF04",
",  c #0CFF0C",
"<  c #13FF05",
"1  c #17FF06",
"2  c #1DFF07",
"3  c #1EFF09",
"4  c #14F114",
"5  c #12FF12",
"6  c #16FF16",
"7  c #19FF1A",
"8  c #24FF0B",
"9  c #24FF13",
"0  c #22FF22",
"q  c #23FF24",
"w  c #26FF26",
"e  c #27FF27",
"r  c #4BFF16",
"t  c #55FF18",
"y  c #5AFF1B",
"u  c #5DFF18",
"i  c #6DFF20",
"p  c #72FF22",
"a  c #74FF37",
"s  c #52A952",
"d  c #619461",
"f  c #769B76",
"g  c #4AFF4A",
"h  c #5DFF48",
"j  c #51FF51",
"k  c #59FF59",
"l  c #67EF63",
"z  c #79E879",
"x  c #74FF74",
"c  c #78FF78",
"v  c #BFFF21",
"b  c #ACFF34",
"n  c #ADFF34",
"m  c #B6FF37",
"M  c #B8FF37",
"N  c #BCFF35",
"B  c #CCFF3D",
"V  c #D8FF3F",
"C  c #FFFF37",
"Z  c #FFFF3B",
"A  c #FFFF3F",
"S  c #DFFF43",
"D  c #D9F75F",
"F  c #E8FF48",
"G  c #FFFF42",
"H  c #FFFF47",
"J  c #FFFF4B",
"K  c #FFFF4E",
"L  c #EAFF5B",
"P  c #FFFF51",
"I  c #FFFF54",
"U  c #FFFF58",
"Y  c #FBFB5C",
"T  c #FFFF5F",
"R  c #F7F76A",
"E  c #F8F869",
"W  c #F6F671",
"Q  c #FFFF72",
"!  c #F4F479",
"~  c #8D8D8D",
"^  c #918A91",
"/  c #9B829B",
"(  c #83FF83",
")  c #89FF89",
"_  c #91FF91",
"`  c #9AFF9A",
"'  c #AAFFAA",
"]  c #AFFFAF",
"[  c #B8FFB8",
"{  c #BFFFBF",
"}  c #E3E3BF",
"|  c #DFDFCF",
" . c #D7D7D7",
".. c #D8D8D8",
"X. c gray86",
"o. c #DBDBDD",
"O. c #DDDADD",
"+. c #DFDFDF",
"@. c #E8DFD2",
"#. c #CFFFCF",
"$. c #DCEFDC",
"%. c #DEFFDE",
"&. c #DADAE2",
"*. c #D7D7ED",
"=. c #D8D8EB",
"-. c #D5D5F7",
";. c #DBD6F3",
":. c #E1D9E1",
">. c #E6D9E6",
",. c #E8D9EC",
"<. c #E9D7F5",
"1. c gray89",
"2. c #E9E9E9",
"3. c #E1FFE1",
"4. c #F2E0F2",
"5. c #F6E4F6",
"6. c #F3F3F3",
"7. c gray97",
"8. c #F1FFF1",
"9. c white",
/* pixels */
"9.9.9.9.9.9.9.9.9.9.9.9.9.9.~   % 9.9.9.9.9.9.9.9.9.9.9.9.9.9.9.",
"9.9.9.9.9.9.9.9.9.9.9.9.9.9.~   % 9.9.9.9.9.9.9.9.9.9.9.9.9.9.9.",
"9.9.9.9.9.9.9.9.9.9.9.9.9.9.~   % 9.9.9.9.9.9.9.9.9.9.9.9.9.9.9.",
"9.9.9.9.9.9.9.9.9.9.9.9.9.9.~   % 9.9.9.9.9.9.9.9.9.9.9.9.9.9.9.",
"9.9.9.9.9.9.9.9.9.9.9.9.9.9.~   % 9.9.9.9.2.6.9.9.9.9.9.9.9.9.9.",
"9.9.9.9.9.9.9.9.9.9.9.9.9.9.^   $ 9.9.9.1.....6.9.9.9.9.9.9.9.9.",
"9.9.9.9.9.9.9.9.9.9.9.9.9.9.f . & 9.9.6. .+...9.9.9.9.9.9.9.9.9.",
"9.9.9.9.9.9.9.9.9.9.9.) 6 5 - : 4 w [ :.....6.9.9.9.9.9.9.9.9.9.",
"9.9.9.9.9.9.9.9.9.8.- - - - 2 9 - - z >.O.5.9.9.9.9.9.9.9.9.9.9.",
"9.9.9.9.9.9.9.9.' - - ; n S P T F D <.@...g 9.9.9.9.9.9.9.9.9.9.",
"9.9.9.9.9.9.9.8.- - i P P K J J G ;...>.l - x 9.9.9.9.9.9.9.9.9.",
"9.9.9.9.9.9.9.- - r U K J K K Z } &...| B - - 3.9.9.9.9.9.9.9.9.",
"9.9.9.9.9.9._ - > I K K J K H E ;.o.=.G P i - w 9.9.9.9.9.9.9.9.",
"9.9.9.9.9.9.0 - n P J K K J C =.o.=.! G K I - - 9.9.9.9.9.9.9.9.",
"+.+.+.+.+.4.w - m P K K K Z } &.o.| Z J K I - - $.:.+.+.+.+.+.+.",
"            - - K K K J H R =.o.-.H J K K P u - @               ",
"O O O O o + q - Q J J K J P ..*.W G K K K K h - d X O O O O O O ",
"9.9.9.9.9.9.w - N K K K J J P Y H J J K K U - - 9.9.9.9.9.9.9.9.",
"9.9.9.9.9.9.c - i I K K K J J J K J K K P S - 7 9.9.9.9.9.9.9.9.",
"9.9.9.9.9.9.%.- - B K J K K K K K K K J K 1 - x 9.9.9.9.9.9.9.9.",
"9.9.9.9.9.9.9.k - < I P K K K J J K K U p - , 9.9.9.9.9.9.9.9.9.",
"9.9.9.9.9.9.9.9.- - - M U P K K P P P 3 - - #.9.9.9.9.9.9.9.9.9.",
"9.9.9.9.9.9.9.9.9.q - - 8 y V L a t - - - { 9.9.9.9.9.9.9.9.9.9.",
"9.9.9.9.9.9.9.9.9.9._ - - - - - - - - j 9.9.9.9.9.9.9.9.9.9.9.9.",
"9.9.9.9.9.9.9.9.9.9.9.8.` ( = * s ] 9.9.9.9.9.9.9.9.9.9.9.9.9.9.",
"9.9.9.9.9.9.9.9.9.9.9.9.9.9./   # 9.9.9.9.9.9.9.9.9.9.9.9.9.9.9.",
"9.9.9.9.9.9.9.9.9.9.9.9.9.9.~   % 9.9.9.9.9.9.9.9.9.9.9.9.9.9.9.",
"9.9.9.9.9.9.9.9.9.9.9.9.9.9.~   % 9.9.9.9.9.9.9.9.9.9.9.9.9.9.9.",
"9.9.9.9.9.9.9.9.9.9.9.9.9.9.~   % 9.9.9.9.9.9.9.9.9.9.9.9.9.9.9.",
"9.9.9.9.9.9.9.9.9.9.9.9.9.9.~   % 9.9.9.9.9.9.9.9.9.9.9.9.9.9.9.",
"9.9.9.9.9.9.9.9.9.9.9.9.9.9.~   % 9.9.9.9.9.9.9.9.9.9.9.9.9.9.9.",
"9.9.9.9.9.9.9.9.9.9.9.9.9.9.~   % 9.9.9.9.9.9.9.9.9.9.9.9.9.9.9."
};
